<mxfile host="Electron" modified="2024-05-01T14:08:22.160Z" agent="Mozilla/5.0 (Windows NT 10.0; Win64; x64) AppleWebKit/537.36 (KHTML, like Gecko) draw.io/24.2.5 Chrome/120.0.6099.109 Electron/28.1.0 Safari/537.36" version="24.2.5" etag="gkHKs_JJzKNIPci8igKo" type="device">
  <diagram id="4Hjw77E7J9CPAmsw-tzJ" name="Pagina-1">
    <mxGraphModel dx="1212" dy="229" grid="1" gridSize="10" guides="1" tooltips="1" connect="1" arrows="1" fold="1" page="1" pageScale="1" pageWidth="827" pageHeight="1169" math="0" shadow="0">
      <root>
        <mxCell id="0" />
        <mxCell id="1" parent="0" />
        <mxCell id="UGxFSvyYkEUsFSv6B16H-15" style="edgeStyle=orthogonalEdgeStyle;rounded=0;orthogonalLoop=1;jettySize=auto;html=1;exitX=1;exitY=0.5;exitDx=0;exitDy=0;entryX=0.5;entryY=0;entryDx=0;entryDy=0;endArrow=none;endFill=0;" edge="1" parent="1" source="UGxFSvyYkEUsFSv6B16H-3" target="UGxFSvyYkEUsFSv6B16H-13">
          <mxGeometry relative="1" as="geometry" />
        </mxCell>
        <mxCell id="UGxFSvyYkEUsFSv6B16H-16" style="edgeStyle=orthogonalEdgeStyle;rounded=0;orthogonalLoop=1;jettySize=auto;html=1;exitX=0;exitY=0.5;exitDx=0;exitDy=0;entryX=0.5;entryY=0;entryDx=0;entryDy=0;endArrow=none;endFill=0;" edge="1" parent="1" source="UGxFSvyYkEUsFSv6B16H-3" target="UGxFSvyYkEUsFSv6B16H-14">
          <mxGeometry relative="1" as="geometry" />
        </mxCell>
        <mxCell id="UGxFSvyYkEUsFSv6B16H-3" value="Avatar" style="whiteSpace=wrap;html=1;align=center;" vertex="1" parent="1">
          <mxGeometry x="-423.12" y="333.5" width="60" height="30" as="geometry" />
        </mxCell>
        <mxCell id="UGxFSvyYkEUsFSv6B16H-4" value="&lt;font style=&quot;font-size: 8px;&quot;&gt;Esperienza&lt;/font&gt;" style="text;html=1;align=center;verticalAlign=middle;whiteSpace=wrap;rounded=1;strokeColor=none;" vertex="1" parent="1">
          <mxGeometry x="-443" y="300" width="49" height="23" as="geometry" />
        </mxCell>
        <mxCell id="UGxFSvyYkEUsFSv6B16H-5" value="&lt;font style=&quot;font-size: 8px;&quot;&gt;Argomento&lt;/font&gt;" style="text;html=1;align=center;verticalAlign=middle;whiteSpace=wrap;rounded=1;strokeColor=none;" vertex="1" parent="1">
          <mxGeometry x="-415" y="400" width="40" height="19" as="geometry" />
        </mxCell>
        <mxCell id="UGxFSvyYkEUsFSv6B16H-6" value="&lt;span style=&quot;font-size: 8px;&quot;&gt;(0,N)&lt;/span&gt;" style="text;html=1;align=center;verticalAlign=middle;whiteSpace=wrap;rounded=1;strokeColor=none;glass=0;" vertex="1" parent="1">
          <mxGeometry x="-513.12" y="365" width="50" height="15" as="geometry" />
        </mxCell>
        <mxCell id="UGxFSvyYkEUsFSv6B16H-7" style="edgeStyle=orthogonalEdgeStyle;rounded=0;orthogonalLoop=1;jettySize=auto;html=1;exitX=0;exitY=0.25;exitDx=0;exitDy=0;endArrow=oval;endFill=1;" edge="1" parent="1">
          <mxGeometry relative="1" as="geometry">
            <mxPoint x="-443.12" y="342.23" as="targetPoint" />
            <mxPoint x="-423.12" y="342" as="sourcePoint" />
            <Array as="points">
              <mxPoint x="-433.12" y="342.23" />
            </Array>
          </mxGeometry>
        </mxCell>
        <mxCell id="UGxFSvyYkEUsFSv6B16H-8" value="&lt;font style=&quot;font-size: 8px;&quot;&gt;Nickname&lt;/font&gt;" style="text;html=1;align=center;verticalAlign=middle;whiteSpace=wrap;rounded=1;strokeColor=none;" vertex="1" parent="1">
          <mxGeometry x="-463.12" y="318.5" width="30" height="23.5" as="geometry" />
        </mxCell>
        <mxCell id="UGxFSvyYkEUsFSv6B16H-9" value="&lt;span style=&quot;font-size: 8px;&quot;&gt;(0,N)&lt;/span&gt;" style="text;html=1;align=center;verticalAlign=middle;whiteSpace=wrap;rounded=1;strokeColor=none;glass=0;" vertex="1" parent="1">
          <mxGeometry x="-320" y="363.5" width="20" height="21.25" as="geometry" />
        </mxCell>
        <mxCell id="UGxFSvyYkEUsFSv6B16H-10" style="edgeStyle=orthogonalEdgeStyle;rounded=0;orthogonalLoop=1;jettySize=auto;html=1;exitX=0.152;exitY=-0.053;exitDx=0;exitDy=0;endArrow=oval;endFill=0;exitPerimeter=0;" edge="1" parent="1">
          <mxGeometry relative="1" as="geometry">
            <mxPoint x="-419" y="322" as="targetPoint" />
            <mxPoint x="-418.77" y="333.40999999999997" as="sourcePoint" />
            <Array as="points">
              <mxPoint x="-418.77" y="326" />
            </Array>
          </mxGeometry>
        </mxCell>
        <mxCell id="UGxFSvyYkEUsFSv6B16H-19" style="edgeStyle=orthogonalEdgeStyle;rounded=0;orthogonalLoop=1;jettySize=auto;html=1;exitX=0.5;exitY=1;exitDx=0;exitDy=0;entryX=1;entryY=0.5;entryDx=0;entryDy=0;endArrow=none;endFill=0;" edge="1" parent="1" source="UGxFSvyYkEUsFSv6B16H-13" target="UGxFSvyYkEUsFSv6B16H-17">
          <mxGeometry relative="1" as="geometry" />
        </mxCell>
        <mxCell id="UGxFSvyYkEUsFSv6B16H-13" value="R-A" style="rhombus;whiteSpace=wrap;html=1;" vertex="1" parent="1">
          <mxGeometry x="-350" y="380" width="60" height="30" as="geometry" />
        </mxCell>
        <mxCell id="UGxFSvyYkEUsFSv6B16H-18" style="edgeStyle=orthogonalEdgeStyle;rounded=0;orthogonalLoop=1;jettySize=auto;html=1;exitX=0.5;exitY=1;exitDx=0;exitDy=0;entryX=0;entryY=0.5;entryDx=0;entryDy=0;endArrow=none;endFill=0;" edge="1" parent="1" source="UGxFSvyYkEUsFSv6B16H-14" target="UGxFSvyYkEUsFSv6B16H-17">
          <mxGeometry relative="1" as="geometry" />
        </mxCell>
        <mxCell id="UGxFSvyYkEUsFSv6B16H-14" value="A-R" style="rhombus;whiteSpace=wrap;html=1;" vertex="1" parent="1">
          <mxGeometry x="-503" y="380" width="60" height="30" as="geometry" />
        </mxCell>
        <mxCell id="UGxFSvyYkEUsFSv6B16H-28" style="edgeStyle=orthogonalEdgeStyle;rounded=0;orthogonalLoop=1;jettySize=auto;html=1;exitX=0.5;exitY=1;exitDx=0;exitDy=0;entryX=0.5;entryY=0;entryDx=0;entryDy=0;endArrow=none;endFill=0;" edge="1" parent="1" source="UGxFSvyYkEUsFSv6B16H-17" target="UGxFSvyYkEUsFSv6B16H-26">
          <mxGeometry relative="1" as="geometry" />
        </mxCell>
        <mxCell id="UGxFSvyYkEUsFSv6B16H-29" style="edgeStyle=orthogonalEdgeStyle;rounded=0;orthogonalLoop=1;jettySize=auto;html=1;exitX=0.5;exitY=0;exitDx=0;exitDy=0;entryX=0.5;entryY=1;entryDx=0;entryDy=0;endArrow=oval;endFill=0;" edge="1" parent="1" source="UGxFSvyYkEUsFSv6B16H-17" target="UGxFSvyYkEUsFSv6B16H-5">
          <mxGeometry relative="1" as="geometry" />
        </mxCell>
        <mxCell id="UGxFSvyYkEUsFSv6B16H-17" value="Relazione" style="whiteSpace=wrap;html=1;align=center;" vertex="1" parent="1">
          <mxGeometry x="-423.12" y="430" width="60" height="30" as="geometry" />
        </mxCell>
        <mxCell id="UGxFSvyYkEUsFSv6B16H-20" value="&lt;span style=&quot;font-size: 8px;&quot;&gt;(1,1)&lt;/span&gt;" style="text;html=1;align=center;verticalAlign=middle;whiteSpace=wrap;rounded=1;strokeColor=none;glass=0;" vertex="1" parent="1">
          <mxGeometry x="-513.12" y="410" width="50" height="15" as="geometry" />
        </mxCell>
        <mxCell id="UGxFSvyYkEUsFSv6B16H-21" value="&lt;span style=&quot;font-size: 8px;&quot;&gt;(1,1)&lt;/span&gt;" style="text;html=1;align=center;verticalAlign=middle;whiteSpace=wrap;rounded=1;strokeColor=none;glass=0;" vertex="1" parent="1">
          <mxGeometry x="-310" y="400" width="20" height="21.25" as="geometry" />
        </mxCell>
        <mxCell id="UGxFSvyYkEUsFSv6B16H-22" value="&lt;font style=&quot;font-size: 8px;&quot;&gt;Ora&lt;/font&gt;" style="text;html=1;align=center;verticalAlign=middle;whiteSpace=wrap;rounded=1;strokeColor=none;glass=0;" vertex="1" parent="1">
          <mxGeometry x="-461.12" y="493.99" width="50" height="15" as="geometry" />
        </mxCell>
        <mxCell id="UGxFSvyYkEUsFSv6B16H-23" value="&lt;font style=&quot;font-size: 8px;&quot;&gt;Data&lt;/font&gt;" style="text;html=1;align=center;verticalAlign=middle;whiteSpace=wrap;rounded=1;strokeColor=none;glass=0;" vertex="1" parent="1">
          <mxGeometry x="-463.12" y="480" width="50" height="15" as="geometry" />
        </mxCell>
        <mxCell id="UGxFSvyYkEUsFSv6B16H-24" style="edgeStyle=orthogonalEdgeStyle;rounded=0;orthogonalLoop=1;jettySize=auto;html=1;exitX=0;exitY=0;exitDx=0;exitDy=0;endArrow=oval;endFill=0;" edge="1" parent="1">
          <mxGeometry relative="1" as="geometry">
            <mxPoint x="-423.12" y="491.25" as="targetPoint" />
            <mxPoint x="-403.74" y="491.25" as="sourcePoint" />
            <Array as="points" />
          </mxGeometry>
        </mxCell>
        <mxCell id="UGxFSvyYkEUsFSv6B16H-25" style="edgeStyle=orthogonalEdgeStyle;rounded=0;orthogonalLoop=1;jettySize=auto;html=1;endArrow=oval;endFill=0;" edge="1" parent="1">
          <mxGeometry relative="1" as="geometry">
            <mxPoint x="-423.12" y="504.37" as="targetPoint" />
            <mxPoint x="-403.12" y="504.37" as="sourcePoint" />
            <Array as="points" />
          </mxGeometry>
        </mxCell>
        <mxCell id="UGxFSvyYkEUsFSv6B16H-26" value="&lt;p style=&quot;line-height: 110%;&quot;&gt;&lt;font style=&quot;font-size: 7px;&quot;&gt;DataVisita&lt;/font&gt;&lt;/p&gt;" style="ellipse;whiteSpace=wrap;html=1;" vertex="1" parent="1">
          <mxGeometry x="-411.12" y="486.87" width="36.12" height="20" as="geometry" />
        </mxCell>
        <mxCell id="UGxFSvyYkEUsFSv6B16H-30" value="" style="curved=1;endArrow=oval;html=1;rounded=0;endFill=1;" edge="1" parent="1">
          <mxGeometry width="50" height="50" relative="1" as="geometry">
            <mxPoint x="-450" y="420" as="sourcePoint" />
            <mxPoint x="-340" y="420" as="targetPoint" />
            <Array as="points">
              <mxPoint x="-450" y="470" />
              <mxPoint x="-391.67" y="471.45" />
              <mxPoint x="-341.67" y="471.45" />
            </Array>
          </mxGeometry>
        </mxCell>
      </root>
    </mxGraphModel>
  </diagram>
</mxfile>
